mtllib dice.mtl
o Dice
v -1.0 1.0 1.0
v 1.0 1.0 1.0
v 1.0 1.0 -1.0
v -1.0 1.0 -1.0
v -1.0 -1.0 1.0
v 1.0 -1.0 1.0
v 1.0 -1.0 -1.0
v -1.0 -1.0 -1.0

vn 0.0 1.0 0.0
vn 0.0 0.0 1.0
vn 1.0 0.0 0.0
vn 0.0 0.0 -1.0
vn -1.0 0.0 0.0
vn 0.0 -1.0 0.0

vt 0 0
vt 1 0
vt 1 1
vt 0 1

s off

usemtl one
f 1/4/1 2/3/1 3/2/1 4/1/1
usemtl two
f 5/4/2 6/3/2 2/2/2 1/1/2
usemtl four
f 6/4/3 7/3/3 3/2/3 2/1/3
usemtl five
f 7/4/4 8/3/4 4/2/4 3/1/4
usemtl three
f 8/4/5 5/3/5 1/2/5 4/1/5
usemtl six
f 8/4/6 7/3/6 6/2/6 5/1/6
